# xmcd
#
# Track frame offsets:
#	150
#	17368
#	33512
#	52523
#	70480
#	86368
#	103192
#	120674
#	140155
#	159205
#	178451
#	193400
#	211598
#	229760
#	247229
#	289524
#	309951
#
# Disc length: 4493 seconds
#
# Revision: 0
# Processed by: cddbd v1.4PL0 Copyright (c) Steve Scherf et al.
# Submitted via: dBpowerAMP V4.0
#
DISCID=ea118b11
DTITLE=Paula Abdul - Greatest Hits
DYEAR=1900
DGENRE=Slow Rock
TTITLE0=Straight Up
TTITLE1=Cold Hearted
TTITLE2=Forever Your Girl
TTITLE3=The Way That You Love Me
TTITLE4=Knocked Out
TTITLE5=Opposites Attract
TTITLE6=Bent Time Back Round
TTITLE7=Rush Rush
TTITLE8=The Promise Of A New Day
TTITLE9=Blowing Kisses in the Wind
TTITLE10=Videology
TTITLE11=My Love is for real
TTITLE12=Crazy Cool
TTITLE13=If I were your girl
TTITLE14=Magamix Medley
TTITLE15=Crazy Love
TTITLE16=Cold Hearted Remix
EXTD=
EXTT0=
EXTT1=
EXTT2=
EXTT3=
EXTT4=
EXTT5=
EXTT6=
EXTT7=
EXTT8=
EXTT9=
EXTT10=
EXTT11=
EXTT12=
EXTT13=
EXTT14=
EXTT15=
EXTT16=
PLAYORDER=
